# xmcd CD database file
#
# Track frame offsets:
#	150
#	18961
#	50871
#	83826
#	99217
#	125645
#	142220
#	165646
#
# Disc length: 2585 seconds
#
# Revision: 0
# Processed by: cddbd v1.5.2PL0 Copyright (c) Steve Scherf et al.
# Submitted via: CDex 1.51
#
DISCID=690a1708
DTITLE=Cristian Cuturrufo - Puro Jazz
DYEAR=2000
DGENRE=Jazz
TTITLE0=stablemate
TTITLE1=porcinology
TTITLE2=woodn't you
TTITLE3=cacharrito
TTITLE4=is it true about dixy
TTITLE5=indiana
TTITLE6=cirrus
TTITLE7=el himno
EXTD=YEAR: 2000
EXTT0=
EXTT1=
EXTT2=
EXTT3=
EXTT4=
EXTT5=
EXTT6=
EXTT7=
PLAYORDER=
